<?xml version="1.0" standalone="no"?>
<!DOCTYPE svg PUBLIC "-//W3C//DTD SVG 20010904//EN"
 "http://www.w3.org/TR/2001/REC-SVG-20010904/DTD/svg10.dtd">
<svg version="1.0" xmlns="http://www.w3.org/2000/svg"
 width="256.000000pt" height="256.000000pt" viewBox="0 0 256.000000 256.000000"
 preserveAspectRatio="xMidYMid meet">

<g transform="translate(0.000000,256.000000) scale(0.100000,-0.100000)"
fill="#000000" stroke="none">
<path d="M385 2546 c-41 -18 -95 -73 -111 -113 -12 -27 -14 -231 -14 -1148 0
-984 2 -1120 15 -1153 20 -47 50 -78 100 -105 39 -22 49 -22 603 -25 l562 -3
0 87 c0 158 46 326 130 480 22 40 40 79 40 85 0 7 -78 91 -172 186 l-173 174
0 60 c0 57 2 62 39 96 36 34 41 35 98 31 l59 -4 230 -230 229 -229 32 33 33
32 -147 148 -148 147 -2 665 -3 665 -27 40 c-15 22 -44 51 -65 65 l-37 25
-620 2 c-500 2 -627 0 -651 -11z m1087 -106 c10 -14 21 -49 25 -78 l6 -52
-577 0 -576 0 0 45 c0 37 5 50 35 80 l36 35 516 -2 516 -3 19 -25z m238 -741
l0 -521 -45 40 c-63 55 -103 72 -171 72 -158 0 -257 -138 -212 -294 9 -32 45
-74 170 -201 l157 -161 -30 -52 c-68 -120 -129 -334 -129 -454 l0 -38 -495 0
c-538 0 -540 0 -583 55 -19 23 -22 41 -22 111 l0 84 530 0 530 0 0 45 0 45
-535 0 -535 0 0 895 0 895 685 0 685 0 0 -521z"/>
<path d="M475 2128 c-40 -23 -44 -40 -45 -164 0 -116 1 -121 25 -144 22 -21
38 -25 119 -28 172 -8 196 14 196 182 0 96 -2 107 -24 133 -24 27 -27 28 -138
31 -74 1 -120 -2 -133 -10z"/>
<path d="M901 2126 c-40 -22 -50 -54 -51 -152 0 -163 16 -179 181 -179 105 0
109 1 136 28 26 25 28 35 32 119 4 113 -9 162 -49 183 -38 19 -214 20 -249 1z"/>
<path d="M1334 2130 c-45 -18 -54 -47 -54 -168 0 -106 2 -114 24 -137 30 -30
76 -39 182 -33 71 4 88 8 109 28 24 23 25 28 25 144 -1 126 -5 142 -47 164
-25 14 -207 15 -239 2z"/>
<path d="M455 1685 c-24 -23 -25 -30 -25 -145 0 -115 1 -122 25 -145 23 -24
30 -25 142 -25 163 1 173 11 173 170 0 159 -10 169 -173 170 -112 0 -119 -1
-142 -25z"/>
<path d="M883 1686 c-28 -24 -28 -25 -28 -144 0 -114 1 -122 24 -146 24 -25
28 -26 146 -26 118 0 122 1 146 26 23 24 24 32 24 146 0 119 0 120 -28 144
-26 22 -36 24 -142 24 -106 0 -116 -2 -142 -24z"/>
<path d="M1306 1684 c-25 -26 -26 -31 -26 -144 0 -113 1 -118 26 -144 26 -25
30 -26 146 -26 113 0 120 1 143 25 24 23 25 30 25 145 0 115 -1 122 -25 145
-23 24 -30 25 -143 25 -116 0 -120 -1 -146 -26z"/>
<path d="M495 1283 c-11 -3 -30 -14 -42 -26 -21 -19 -23 -29 -23 -141 1 -167
10 -176 175 -176 104 0 107 1 136 29 28 29 29 32 29 136 0 128 -12 159 -68
174 -37 11 -169 13 -207 4z"/>
<path d="M930 1284 c-69 -25 -80 -49 -80 -176 0 -100 15 -143 56 -158 34 -13
220 -13 245 0 35 19 49 64 49 158 0 156 -16 175 -160 179 -52 1 -102 0 -110
-3z"/>
<path d="M481 850 c-45 -19 -50 -37 -51 -166 0 -116 1 -121 25 -144 21 -20 38
-24 109 -28 106 -6 152 3 182 33 23 23 24 31 24 139 0 107 -2 117 -24 143 -23
27 -28 28 -133 30 -59 2 -119 -2 -132 -7z"/>
<path d="M901 846 c-40 -22 -50 -54 -51 -159 0 -155 21 -177 177 -177 149 0
173 25 173 175 0 153 -22 175 -177 175 -62 -1 -107 -6 -122 -14z"/>
<path d="M980 215 l0 -45 45 0 45 0 0 45 0 45 -45 0 -45 0 0 -45z"/>
<path d="M1886 1539 l-27 -31 68 -61 c168 -152 242 -230 265 -281 l23 -51 3
-558 3 -558 42 3 42 3 0 550 c0 485 -2 556 -17 601 -17 53 -50 110 -90 155
-29 34 -274 259 -281 259 -3 0 -17 -14 -31 -31z"/>
</g>
</svg>
